<?xml version="1.0" encoding="utf-8"?>
<!-- Generator: Adobe Illustrator 18.0.0, SVG Export Plug-In . SVG Version: 6.00 Build 0)  -->
<!DOCTYPE svg PUBLIC "-//W3C//DTD SVG 1.1//EN" "http://www.w3.org/Graphics/SVG/1.1/DTD/svg11.dtd">
<svg version="1.1" id="Layer_1" xmlns="http://www.w3.org/2000/svg" xmlns:xlink="http://www.w3.org/1999/xlink" x="0px" y="0px"
	 viewBox="0 0 512 512" enable-background="new 0 0 512 512" xml:space="preserve">
<g id="miu">
	<path id="circle_email_glyph" d="M46.2,255c0-113.7,92.1-205.8,205.8-205.8S457.8,141.3,457.8,255S365.7,460.8,252,460.8
		S46.2,368.7,46.2,255z M252,264.4l-140.3-84.2v18.7L252,283.1l140.3-84.2v-18.7L252,264.4z M168.2,260.5L105.5,311l9.2,19
		l70.8-59.7L168.2,260.5z M328.5,264.4l62.8,50.5l-9.2,19l-70.8-59.7L328.5,264.4z"/>
</g>
<path fill="#FFFFFF" d="M311.7,273.9c5.4-3,10-5.9,14.9-8.3c1.1-0.5,3.2-0.5,4.1,0.3c19.9,15.8,39.7,31.8,59.5,47.7
	c0.3,0.2,0.5,0.6,1,1.1c-2.9,6-5.9,12.1-9,18.6C358.5,313.4,335.3,293.8,311.7,273.9z"/>
</svg>
