<?xml version="1.0" encoding="utf-8"?>
<!-- Generator: Adobe Illustrator 18.0.0, SVG Export Plug-In . SVG Version: 6.00 Build 0)  -->
<!DOCTYPE svg PUBLIC "-//W3C//DTD SVG 1.1//EN" "http://www.w3.org/Graphics/SVG/1.1/DTD/svg11.dtd">
<svg version="1.1" id="Layer_1" xmlns="http://www.w3.org/2000/svg" xmlns:xlink="http://www.w3.org/1999/xlink" x="0px" y="0px"
	 viewBox="0 0 512 512" enable-background="new 0 0 512 512" xml:space="preserve">
<path d="M194.9,260.7c-8,7.4-11.4,16.3-11.4,25.9c0,40,32,44.9,73.2,44.9h0.6c41.2,0,73.2-4.9,73.2-44.9c0-9.6-3.4-18.5-11.4-25.9
	c-13.4-12.3-36.1-5.8-61.8-5.8c-0.1,0-0.2,0-0.3,0c-0.1,0-0.2,0-0.3,0C231,254.9,208.3,248.4,194.9,260.7z M277.5,289.9
	c0-10.8,6.4-19.6,14.2-19.6c7.8,0,14.2,8.8,14.2,19.6c0,10.8-6.3,19.6-14.2,19.6C283.9,309.6,277.5,300.8,277.5,289.9z M208.1,289.9
	c0-10.8,6.4-19.6,14.2-19.6c7.8,0,14.2,8.8,14.2,19.6c0,10.8-6.4,19.6-14.2,19.6C214.5,309.6,208.1,300.8,208.1,289.9z M49.7,256
	c0,114.5,92.8,207.3,207.3,207.3c114.5,0,207.3-92.8,207.3-207.3S371.5,48.7,257,48.7C142.5,48.7,49.7,141.5,49.7,256z M156.6,261.4
	c0-18,6.2-31.2,16.3-42.2c-1.6-4-1.7-26.6,6.9-48.3c0,0,19.8,2.2,49.7,22.7c6.3-1.7,16.9-2.6,27.5-2.6c10.6,0,21.2,0.9,27.5,2.6
	c29.9-20.5,49.7-22.7,49.7-22.7c8.6,21.7,8.5,44.3,6.9,48.3c10.1,11,16.3,24.2,16.3,42.2c0,78.4-65,79.7-81.5,79.7
	c-3.7,0-11.1,0-18.9,0c-7.8,0-15.2,0-18.9,0C221.7,341.1,156.6,339.8,156.6,261.4z"/>
</svg>
